<svg xmlns="http://www.w3.org/2000/svg" viewBox="0 0 281.63 58.79"><defs><style>.cls-1{fill:#c6c6c6;}</style></defs><g id="Layer_2" data-name="Layer 2"><g id="Layer_1-2" data-name="Layer 1"><path class="cls-1" d="M281.63,58.28l-3.2.33c-.16-1.15-.31-2.31-.5-3.71a8.51,8.51,0,0,0-1.6.84,9.19,9.19,0,0,1-5.2,2.21c-1.46.16-2.91.41-4.37.51-3.73.25-5.63-1.4-6.66-4.8a20,20,0,0,1,.39-12.08,12.29,12.29,0,0,1,3.6-5.89,7,7,0,0,1,4.63-1.76,33,33,0,0,1,10,1.39,1.8,1.8,0,0,0,1-.07c.65-.19,1.28-.45,1.92-.68Zm-1.89-15.55a18.74,18.74,0,0,0-.65-2.91c-1.72-4.39-5.59-6.18-9.66-2.49a14.08,14.08,0,0,0-4.06,6.78,12.78,12.78,0,0,0,1.89,11.18c1.52,2.16,3.62,2.63,5.67,1C277.19,52.89,279.18,48.25,279.74,42.73Z"/><path class="cls-1" d="M106.88,25.74a19.17,19.17,0,0,0,1.74,1.05,6.87,6.87,0,0,1,4.24,6c.31,3.38,0,6.57-2.68,9a12.38,12.38,0,0,1-6,2.72c-5.55,1.14-11.17.66-16.94.57,1.3-13.14,2.11-26.23.43-39.49l6.54-.92.87,2.08c1.37-.36,2.76-.78,4.17-1.08a63,63,0,0,1,6.64-1.23c5-.49,7.78,1.58,9,6.47s-.28,9.09-4.48,12.16Zm-11.5-1h2.69A10.47,10.47,0,0,0,108.6,17a9.51,9.51,0,0,0-1.27-8.59,3.25,3.25,0,0,0-4.48-1,15.93,15.93,0,0,0-3.74,3.49C96.1,14.86,95,19.47,95.38,24.7Zm.1,3.08a29.06,29.06,0,0,0,.57,11.95,4.46,4.46,0,0,0,6.46,2.71,9.14,9.14,0,0,0,4.37-10.18,6.54,6.54,0,0,0-2.44-3.81C101.63,26.5,98.64,26.85,95.48,27.78Z"/><path class="cls-1" d="M70.13,42.89a4.25,4.25,0,0,1-3.24,1.47c-2.4.11-4.8.39-7.2.58a4.76,4.76,0,0,1-3.87-1.5c-1.88-1.85-3.75-3.7-5.69-5.48a12.36,12.36,0,0,0-8-3.4,17.44,17.44,0,0,0-2,.18V45H33c1.07-11.69,2.49-23.39-.91-35.21l7.27-.43.79,3.26c.88-.44,1.65-.73,2.32-1.16A19.81,19.81,0,0,1,51.6,8.67c1.54-.14,3.08-.23,4.62-.4,4.7-.52,7.34,1.34,8.28,5.94,1.41,6.9-1.78,14.69-8.73,17.67a12,12,0,0,0-1.43.91c1.1.94,2,1.73,3,2.53,1.46,1.25,2.94,2.47,4.36,3.76a10.57,10.57,0,0,0,6.52,2.78C68.92,41.92,69.86,41.77,70.13,42.89Zm-29-10.3c1.4-.13,2.67-.15,3.91-.39,6-1.14,10.63-4.1,13.26-9.73a9.34,9.34,0,0,0-.17-9c-1.48-2.62-4-3.87-6.49-2.83a11.69,11.69,0,0,0-3.88,2.61A23.45,23.45,0,0,0,42.55,22,25.91,25.91,0,0,0,41.13,32.59Z"/><path class="cls-1" d="M142.46,27h9.9l-1.89,3.5H124.21a9.68,9.68,0,0,0,1.18,6.58c1.73,2.84,4.55,4.07,7.65,4.73,4,.86,7.46-.77,10.7-2.89,1.75-1.15,3.44-2.4,5.41-3.47a7.19,7.19,0,0,1-.24.94c-1,2.37-2.1,4.74-3.16,7.1a3.11,3.11,0,0,1-3,1.9c-5.36,0-10.71.1-16.06,0-3.92-.1-6.19-2.72-7.41-6-3.17-8.62-2.12-16.92,2.74-24.69a11.4,11.4,0,0,1,7.37-5,43.61,43.61,0,0,1,13.29-.44c4.4.37,6.76,3.39,6.87,7.78.1,3.93-1.23,7-5,8.67A18.8,18.8,0,0,0,142.46,27Zm-17.68,1.55c.46,0,.86.07,1.26.08a22.57,22.57,0,0,0,12.43-3.55,9.71,9.71,0,0,0,5.06-8.85c-.08-3-2.86-6.35-6.37-5.54a9.87,9.87,0,0,0-3.26,1.46c-3.9,2.65-6.32,6.45-8.06,10.73A12.25,12.25,0,0,0,124.78,28.55Z"/><path class="cls-1" d="M279.93,8.63V14H185.84V8.63Z"/><path class="cls-1" d="M154.18,35.39l7.47-.6c.14,1.37.18,2.65.41,3.89,1,5,4.59,6.5,8.9,3.68a10.09,10.09,0,0,0,4-9.56,5.26,5.26,0,0,0-5.09-4.32c-2.74-.13-5.5-.07-8.24-.25A6.84,6.84,0,0,1,155,20.81a12.51,12.51,0,0,1,3.65-8.61A8.36,8.36,0,0,1,164,9.64c4-.26,8.06-.34,12.08-.32,2.43,0,5,2.54,5.58,5.22.2.89.27,1.82.41,2.86l-7.34.73c.08-.58.14-.94.18-1.31a4.66,4.66,0,0,0-3.25-5.17,6.58,6.58,0,0,0-7.13,1.44,7.35,7.35,0,0,0-2.43,7.12,4.12,4.12,0,0,0,3.8,3.48c2.85.22,5.72.17,8.57.33,2.41.13,4.72.75,6,2.94a10.1,10.1,0,0,1,1.39,4.1A14.78,14.78,0,0,1,179,41.9a8.43,8.43,0,0,1-6.22,3.47c-4,.21-8,.1-12,.15-3.23,0-5-1.76-5.78-4.68C154.61,39.13,154.48,37.34,154.18,35.39Z"/><path class="cls-1" d="M28.52,36.29c-.56,2.48-1.1,5-1.72,7.44a1.18,1.18,0,0,1-.86.68c-4.1.28-8.2.64-12.3.68a8.89,8.89,0,0,1-4.25-1.23C7.3,42.67,6.77,40.39,6.32,38.2c-1.41-6.75-.61-13.37,1.19-19.94.42-1.5.64-3.06,1-4.89H.17L0,13A35.08,35.08,0,0,1,2.05,9.75c.23-.3,1-.28,1.49-.29,2.18,0,4.36,0,6.56,0C11.46,7.1,12.72,4.88,14,2.7a1.79,1.79,0,0,1,1.07-.84c2.46-.31,4.93-.52,7.68-.79L17.67,9.15h12l-1.89,4c-3.54,0-7.15.05-10.77,0a1.74,1.74,0,0,0-2,1.41A55.55,55.55,0,0,0,12.08,26a31.76,31.76,0,0,0,.46,10.43,7.76,7.76,0,0,0,3.68,5.09,6.64,6.64,0,0,0,8.11-1.16c1.19-1.15,2.26-2.42,3.39-3.63.17-.18.38-.34.56-.51Z"/><path class="cls-1" d="M252.77,25H186V20h66.76Z"/><path class="cls-1" d="M233,34.91a9.18,9.18,0,0,0-2.16-.6c-3.27-.06-6.53,0-9.8,0a3.73,3.73,0,0,1,3.89-3.19c4.2.62,8.42,1.11,12.62,1.77a25.76,25.76,0,0,1,5.67,1.35c2.68,1.1,3.8,3.61,4.27,6.26a19.71,19.71,0,0,1-2.61,14.28,8.48,8.48,0,0,1-6.72,3.85,37.11,37.11,0,0,1-7.07,0A6.08,6.08,0,0,1,226,55.09a16.08,16.08,0,0,1-.16-14.34c1-2.32,3.08-3.62,5.38-4.55.61-.25,1.18-.58,1.77-.88Zm12.15,10.4a12.21,12.21,0,0,0-1.25-5.81c-2.08-4.43-5.74-5.08-9.39-2.34-2.49,1.87-3.62,4.57-4.15,7.53a14.48,14.48,0,0,0,1.68,10.65c2,3.15,5.48,3.62,8.18,1.1A15.78,15.78,0,0,0,245.16,45.31Z"/><path class="cls-1" d="M213.5,56.4l5-.56c-.23,2.27-.43,2.47-2.45,2.47h-11.4l0-.44c1.16-.56,2.32-1.15,3.5-1.67a9.72,9.72,0,0,0,4.5-4.28,15.11,15.11,0,0,0,2.3-8.69c-.19-2.84-.91-5.51-3.5-7.21a4.13,4.13,0,0,0-4.59-.08,10.66,10.66,0,0,0-4,4.64,26.4,26.4,0,0,0-2.8,10.7c-.13,2.24-.34,4.47-.53,6.87h-3.76c.28-3.93.65-7.8.8-11.68s.36-7.79-1-11.74h4.56l.89,2.52c.5-.28.83-.42,1.12-.63a9.17,9.17,0,0,1,5.72-2.1c2.1.06,4.2,0,6.3.08a4.39,4.39,0,0,1,4,3.18,16.91,16.91,0,0,1-1.75,15.29,12.67,12.67,0,0,1-2.26,2.18c-.28.27-.54.57-.8.86Z"/><path class="cls-1" d="M74.75,44.91c0-2.11,0-4,0-5.93.1-6.2.29-12.4.28-18.6a25.57,25.57,0,0,0-.82-5.89,16,16,0,0,0-1.59-3.31c-.3-.58-.63-1.15-1.14-2.06H81.66c-.86,11.59-1.55,23.32.5,35.14Z"/><path class="cls-1" d="M192.09,57.76l-4.21.32V51.73c0-3.45.15-6.91-.08-10.34a57.53,57.53,0,0,0-1.33-7.12l5.43-.33C191.59,42,191,49.8,192.09,57.76Z"/><path class="cls-1" d="M256.07,58l-4.51.46V56.34c0-5.66,0-11.33-.1-17,0-1.2-.8-2.38-1.25-3.56a11.22,11.22,0,0,0-.57-1.06h5.94C255.5,42.4,254.41,50.15,256.07,58Z"/><path class="cls-1" d="M82,0l3.88,2C82.76,4.75,78.57,5.15,75.66,8l-3.6-2.16C74.93,2.86,78.94,2.3,82,0Z"/><path class="cls-1" d="M185.43,30.43c2-.9,3.71-1.78,5.51-2.44.47-.17,1.19.33,1.79.53l0,.38-5.27,2.74Z"/><path class="cls-1" d="M258.14,29.22,252.56,32l-1.77-1.17c1-.54,1.86-1,2.71-1.41s1.5-.68,2.24-1C256.7,27.94,257.26,28.61,258.14,29.22Z"/></g></g></svg>