<svg xmlns="http://www.w3.org/2000/svg" viewBox="0 0 268.19 68.72"><defs><style>.cls-1{fill:#c6c6c6;}</style></defs><g id="Layer_2" data-name="Layer 2"><g id="Layer_1-2" data-name="Layer 1"><path class="cls-1" d="M88.32,25.25c0,1.15,0,2.3,0,3.44q.09,9.09.21,18.18c0,1.35.2,1.66,1.5,2s2.6.52,4.11.8v3H78.4V49.62c.85-.14,1.62-.25,2.39-.4.6-.12,1.19-.28,1.78-.46a1.54,1.54,0,0,0,1.19-1.69c0-8.22.11-16.44.16-24.67,0-.54,0-1.08,0-1.62-.17-2.83-.6-3.32-3.38-3.83l-1.24-.25V13.9H94.34l8.11,21.61.24,0c2.77-7.15,5.53-14.3,8.33-21.56h14.92l.14,2.9-5.73,1.18c-.31,10.21-.31,20.15.09,30.13,1.7,1.11,3.64,1,5.6,1.38v3H105.19V49.67c1.8-.4,3.41-.75,5-1.12.16,0,.3-.19.61-.4V25.83l-.11,0q-4.89,13-9.81,26.12H99.17q-5.3-13.32-10.6-26.69ZM111.77,15c-3.53,9.2-7,18.32-10.54,27.45l-.27,0C97.59,33.33,94.22,24.21,90.82,15H80l.1.77.84.15c3.31.65,3.94,1.3,4,4.69,0,8.77,0,17.53-.09,26.3,0,1.79-.5,2.43-2.23,3-1.06.33-2.16.51-3.31.77v.92H93.11L93,50.69c-1.34-.34-2.58-.59-3.77-1a2.41,2.41,0,0,1-1.78-2.53c0-8.66,0-17.32,0-26a7,7,0,0,1,.08-.8l.26-.06L99.92,50.86l.27,0Q105.85,35.89,111.52,21a1.73,1.73,0,0,1,.34,1.07c0,8.29,0,16.59,0,24.89,0,2.09-.48,2.61-2.57,3.07-1.08.25-2.18.39-3.37.59l.09.94h19l-.11-1c-.88-.08-1.67-.11-2.45-.24a40.17,40.17,0,0,1-4.24-.82c-1.38-.38-1.63-.75-1.64-2.16,0-9.45,0-18.9-.09-28.35a1.55,1.55,0,0,1,1.1-1.66,21.67,21.67,0,0,1,2.92-.77c1.42-.23,2.85-.35,4.35-.53V15Z"/><path class="cls-1" d="M197.4,16.7V13.9h15.09c2.72,7.27,5.41,14.44,8.1,21.61h.24c2.76-7.14,5.52-14.28,8.32-21.54h14.94l.13,2.89L238.51,18c-.37,10.23-.36,20.2.09,30.17,1.74,1.08,3.69.92,5.54,1.36v3H223.32v-3L229,48.5v-23L219,51.92h-1.71Q212,38.6,206.7,25.19l-.21,0c0,.23,0,.47,0,.7q.11,10.4.21,20.78c0,1.57.24,1.87,1.77,2.24,1.19.29,2.41.44,3.83.7V52.7H196.57V49.64c1.81-.47,3.72-.29,5.25-1.57.05-1,.14-2,.15-3C202,37,202,29,202,20.92c0-2.84-.59-3.46-3.34-4ZM229.9,15l-10.55,27.5-.24,0C215.73,33.34,212.35,24.19,209,15H198.16l.06.74c4.61,1.09,4.76,1.28,4.87,5.95a1.62,1.62,0,0,1,0,.22c-.05,8.44-.12,16.88-.15,25.32a2.36,2.36,0,0,1-1.71,2.47c-1.16.37-2.37.57-3.56.85a2.64,2.64,0,0,0-.36.19l.08.88h13.77V50.7c-1.39-.36-2.66-.63-3.88-1a2.22,2.22,0,0,1-1.64-2.28q0-12.93-.08-25.87a10.54,10.54,0,0,1,.1-1.13l.25,0,12.15,30.52.27,0Q224,35.91,229.65,21l.25,0c0,.31.08.61.08.91q0,12.68,0,25.33c0,1.59-.46,2.2-2,2.59-1.15.29-2.34.43-3.51.64a1.83,1.83,0,0,0-.35.19l.12.82h19l-.18-1c-.89-.09-1.69-.12-2.47-.25-1.45-.25-2.91-.51-4.34-.85a1.84,1.84,0,0,1-1.52-2c0-9.24-.08-18.47-.11-27.71,0-1.94.26-2.33,2.17-2.75s3.77-.57,5.66-.84c.17,0,.34-.08.59-.14l0-.91Z"/><path class="cls-1" d="M179,48.3l-3.44-8.8h-9.88l-3.41,8.74c1.92,1.45,4.19,1,6.44,1.47v3H151.88l-.13-3,3.38-.72a4.07,4.07,0,0,0,3.15-2.76c3.15-8.1,6.39-16.16,9.6-24.24.15-.36.29-.73.43-1.1L167.64,19a8.26,8.26,0,0,0,2.17-5.28l5.05-1.19c.23.53.4.88.54,1.23,4.38,10.84,8.8,21.65,13.08,32.53.81,2.07,2,3.11,4.21,3.17.42,0,.85.11,1.47.19v3.07H174.05v-3C175.68,49.22,177.5,49.7,179,48.3Zm-9.58-27.37c-.13.35-.25.69-.39,1-3.28,8.24-6.58,16.47-9.82,24.73a5,5,0,0,1-3.3,3.15c-1,.32-2.08.53-3.18.81v1h15.16v-1c-1.73-.32-3.37-.55-5-.94s-2-1.1-1.34-2.7q1.2-3,2.41-6l1-2.51h11.3c1.22,3.11,2.47,6.18,3.59,9.29a1.86,1.86,0,0,1-.53,1.58,5,5,0,0,1-2,.83c-.79.2-1.62.26-2.49.39v1.08h18.44l-.06-1c-1.91-.29-3.7-.51-5.46-.84A3.56,3.56,0,0,1,185,47.45c-4.28-10.71-8.63-21.4-13-32.09-.16-.42-.36-.82-.55-1.23l-.3,0c-.68,1.82-1.37,3.63-2.06,5.45l-.24-.06Z"/><path class="cls-1" d="M268.1,13.88v3c-1.89.53-3.9.28-5.73,1.49V48.24c1.78,1.19,3.76,1.08,5.82,1.53l-.14,2.92H247.14v-3c1.91-.5,3.88-.29,5.69-1.47V18.33c-1.78-1.14-3.73-1-5.64-1.41v-3ZM248,51.59h19l0-1c-.44,0-.8,0-1.15-.11-1.92-.33-3.84-.61-5.74-1a1.71,1.71,0,0,1-1.49-1.82q.06-14.3,0-28.57a1.79,1.79,0,0,1,1.29-1.88,7.59,7.59,0,0,1,1.45-.45c1.71-.25,3.43-.45,5.14-.68a2.84,2.84,0,0,0,.56-.17l-.09-.91H248l.08.91c1.44.33,2.78.58,4.1.94a2.18,2.18,0,0,1,1.74,2.38c-.05,9.26,0,18.53-.06,27.8,0,1.93-.34,2.39-2.2,2.9-1.18.32-2.39.51-3.63.76Z"/><path class="cls-1" d="M129,52.69v-3c1.92-.5,3.89-.28,5.69-1.48V18.32c-1.71-1.13-3.7-.94-5.65-1.41V13.86H149.9v3L144.35,18c-.41,10.25-.45,20.26,0,30.48.94.28,1.85.59,2.77.8s1.84.3,3,.48l-.16,2.94Zm19.74-2.12c-.37,0-.66,0-.94-.09-2-.34-4-.64-6-1.06a1.77,1.77,0,0,1-1.46-2c0-9,0-18,0-27,0-3,.29-3.23,3.3-3.84.21,0,.42-.08.64-.1l4.49-.55-.07-1H129.85l.07.88c1.55.38,3,.68,4.33,1.08a1.92,1.92,0,0,1,1.49,2q-.06,14.28-.05,28.56a2,2,0,0,1-1.56,2.17c-1.32.36-2.67.59-4,.88a2.42,2.42,0,0,0-.37.2l.1.86h19Z"/><path class="cls-1" d="M111.77,15h13.06V16c-1.5.18-2.93.3-4.35.53a21.67,21.67,0,0,0-2.92.77,1.55,1.55,0,0,0-1.1,1.66c0,9.45.05,18.9.09,28.35,0,1.41.26,1.78,1.64,2.16a40.17,40.17,0,0,0,4.24.82c.78.13,1.57.16,2.45.24l.11,1H106l-.09-.94c1.19-.2,2.29-.34,3.37-.59,2.09-.46,2.56-1,2.57-3.07,0-8.3,0-16.6,0-24.89a1.73,1.73,0,0,0-.34-1.07q-5.67,14.93-11.33,29.86l-.27,0L87.78,20.35l-.26.06a7,7,0,0,0-.08.8c0,8.65,0,17.31,0,26a2.41,2.41,0,0,0,1.78,2.53c1.19.39,2.43.64,3.77,1l.08.88H79.26v-.92c1.15-.26,2.25-.44,3.31-.77,1.73-.55,2.22-1.19,2.23-3,0-8.77.11-17.53.09-26.3,0-3.39-.64-4-4-4.69l-.84-.15L80,15H90.82c3.4,9.22,6.77,18.34,10.14,27.46l.27,0C104.73,33.36,108.24,24.24,111.77,15Z"/><path class="cls-1" d="M229.9,15h13l0,.91c-.25.06-.42.11-.59.14-1.89.27-3.8.44-5.66.84s-2.17.81-2.17,2.75c0,9.24.1,18.47.11,27.71a1.84,1.84,0,0,0,1.52,2c1.43.34,2.89.6,4.34.85.78.13,1.58.16,2.47.25l.18,1h-19l-.12-.82a1.83,1.83,0,0,1,.35-.19c1.17-.21,2.36-.35,3.51-.64,1.58-.39,2-1,2-2.59q0-12.66,0-25.33c0-.3-.06-.6-.08-.91l-.25,0Q224,35.92,218.33,50.83l-.27,0L205.91,20.34l-.25,0a10.54,10.54,0,0,0-.1,1.13q0,12.93.08,25.87a2.22,2.22,0,0,0,1.64,2.28c1.22.41,2.49.68,3.88,1v.89H197.39l-.08-.88a2.64,2.64,0,0,1,.36-.19c1.19-.28,2.4-.48,3.56-.85a2.36,2.36,0,0,0,1.71-2.47c0-8.44.1-16.88.15-25.32a1.62,1.62,0,0,0,0-.22c-.11-4.67-.26-4.86-4.87-5.95l-.06-.74H209c3.4,9.22,6.78,18.37,10.16,27.52l.24,0Z"/><path class="cls-1" d="M169.42,20.93l-.5-1.43.24.06c.69-1.82,1.38-3.63,2.06-5.45l.3,0c.19.41.39.81.55,1.23,4.34,10.69,8.69,21.38,13,32.09a3.56,3.56,0,0,0,2.81,2.39c1.76.33,3.55.55,5.46.84l.06,1H174.93V50.57c.87-.13,1.7-.19,2.49-.39a5,5,0,0,0,2-.83,1.86,1.86,0,0,0,.53-1.58c-1.12-3.11-2.37-6.18-3.59-9.29H165L164,41q-1.22,3-2.41,6c-.63,1.6-.35,2.27,1.34,2.7s3.24.62,5,.94v1H152.73v-1c1.1-.28,2.15-.49,3.18-.81a5,5,0,0,0,3.3-3.15C162.45,38.43,165.75,30.2,169,22,169.17,21.62,169.29,21.28,169.42,20.93Zm-3.57,15.44h9.63c-1.6-4.11-3.14-8.09-4.69-12.06l-.26,0C169,28.26,167.45,32.23,165.85,36.37Z"/><path class="cls-1" d="M248,51.59v-1c1.24-.25,2.45-.44,3.63-.76,1.86-.51,2.19-1,2.2-2.9,0-9.27,0-18.54.06-27.8a2.18,2.18,0,0,0-1.74-2.38c-1.32-.36-2.66-.61-4.1-.94L248,15h19l.09.91a2.84,2.84,0,0,1-.56.17c-1.71.23-3.43.43-5.14.68a7.59,7.59,0,0,0-1.45.45A1.79,1.79,0,0,0,258.56,19q0,14.28,0,28.57A1.71,1.71,0,0,0,260,49.43c1.9.42,3.82.7,5.74,1,.35.06.71.07,1.15.11l0,1Z"/><path class="cls-1" d="M148.74,50.57l.1,1h-19l-.1-.86a2.42,2.42,0,0,1,.37-.2c1.33-.29,2.68-.52,4-.88a2,2,0,0,0,1.56-2.17q0-14.28.05-28.56a1.92,1.92,0,0,0-1.49-2c-1.37-.4-2.78-.7-4.33-1.08l-.07-.88h18.94l.07,1-4.49.55c-.22,0-.43.06-.64.1-3,.61-3.28.81-3.3,3.84-.06,9,0,18,0,27a1.77,1.77,0,0,0,1.46,2c2,.42,4,.72,6,1.06C148.08,50.52,148.37,50.53,148.74,50.57Z"/><path class="cls-1" d="M165.85,36.37c1.6-4.14,3.14-8.11,4.68-12.08l.26,0c1.55,4,3.09,8,4.69,12.06Zm4.94-9.25h-.25l-3.18,8.26h6.58C172.86,32.53,171.82,29.83,170.79,27.12Z"/><path class="cls-1" d="M58.7,21.35a25.3,25.3,0,0,1,.74,10.77A5.53,5.53,0,0,1,54.76,37c-1.48.27-3,.49-4.66.76v8.67h-3v2.07l2.69.12v2.72H47.21v2.08h2.45c.44,1.56.35,2-.93,2.56a21.72,21.72,0,0,1-4.43,1.59A7,7,0,0,1,37.44,55l3.92-2.77c3.25-2.29,3.3-2.07,2.75-6.21-.58-4.31-1.09-8.63-1.58-13a1.51,1.51,0,0,1,.46-1.2Q50.51,26.7,58.1,21.65C58.24,21.56,58.4,21.5,58.7,21.35Z"/><path class="cls-1" d="M33.85,55.05a7.22,7.22,0,0,1-7.26,2.52,19.17,19.17,0,0,1-4-1.49c-1.31-.6-1.36-.88-1-2.58H24V51.37H21.38V48.65L24,48.52v-2l-2.8-.13V37.7c-1.54-.23-2.87-.36-4.16-.64-3.57-.75-4.85-2.07-5.37-5.67a25,25,0,0,1,.88-10.09c.36.21.63.34.88.51Q20.74,26.75,28,31.66a1.37,1.37,0,0,1,.7,1.54C28.1,38.11,27.53,43,26.9,47.94a3.12,3.12,0,0,0,1.46,3.24C30.18,52.42,32,53.72,33.85,55.05Z"/><path class="cls-1" d="M23.26,59.34c-4.29.1-6.56-2.88-9.24-5.75h5.15a9.13,9.13,0,0,1,.09,1.55,2.14,2.14,0,0,0,1.23,2.21,16.31,16.31,0,0,0,6.45,2.45,1.38,1.38,0,0,1,.92.64,6.66,6.66,0,0,0,6.32,3.79c1.06,0,2.11,0,3.16,0a6.35,6.35,0,0,0,5.81-3.54,1.64,1.64,0,0,1,1.43-1,15.45,15.45,0,0,0,6.14-2.37,2,2,0,0,0,1.2-2.21,12.87,12.87,0,0,1,0-1.53h5.31c-2.63,2.89-4.95,5.86-9.24,5.76a10.87,10.87,0,0,1-2.47,5.86,9.71,9.71,0,0,1-7.39,3.48c-1.58,0-3.16,0-4.74,0a9.91,9.91,0,0,1-9.83-8.07C23.46,60.23,23.37,59.84,23.26,59.34Z"/><path class="cls-1" d="M30.18,38.62c1.53,1.23,2.87,2.25,4.14,3.34a1.52,1.52,0,0,1,.34,1c0,1.68,0,3.37,0,5,0,.38,0,.75.06,1.17h1.86a26.08,26.08,0,0,0,0-3.54A5,5,0,0,1,39.38,40a14.74,14.74,0,0,0,1.71-1.32c.29,2.2.56,4.2.82,6.2a32.42,32.42,0,0,1,.36,3.24,1.79,1.79,0,0,1-.52,1.31c-1.67,1.28-3.43,2.45-5.13,3.68a1.45,1.45,0,0,1-1.91,0C33,51.87,31.2,50.66,29.48,49.4a1.3,1.3,0,0,1-.5-.93C29.33,45.27,29.75,42.07,30.18,38.62Z"/><path class="cls-1" d="M51.18,10.34l7.88-4.67c.78-.46,1.55-1,2.37-1.36,2-1,4.61.62,4.25,2.84-.86,5.29-1.94,10.54-3.07,15.83-.71-1.48-2-2.62-1.87-4.49.14-2.8,0-5.61,0-8.5H58.7v6.67Z"/><path class="cls-1" d="M20,10.34l-7.47,6.38V10h-2c0,.38-.07.75-.08,1.12,0,2.25-.15,4.51,0,6.73.18,2.06-.87,3.53-1.89,5.39-.14-.6-.24-1-.31-1.36-.91-4.71-1.81-9.43-2.73-14.15A2.91,2.91,0,0,1,6.64,4.61,2.77,2.77,0,0,1,9.9,4.4c3.3,1.92,6.59,3.88,9.88,5.82Z"/><path class="cls-1" d="M9.5,27.19c-.07,3.15,0,6.1,1.67,8.72C13,38.73,16,39,19,39.6v6.92H16.45c-1.93,0-3.86,0-5.79,0a1.27,1.27,0,0,1-1-.52,26.94,26.94,0,0,1-.51-18.46C9.2,27.47,9.27,27.43,9.5,27.19Z"/><path class="cls-1" d="M61.85,27.32a27.19,27.19,0,0,1-.45,19.14H52.2v-7C60.17,39.18,62.11,34.13,61.85,27.32Z"/><path class="cls-1" d="M57.81,19.26,42.07,29.84c-.21-1.65-.41-3.09-.55-4.54a.92.92,0,0,1,.4-.66q6.34-4.25,12.72-8.46s.13,0,.36-.07Z"/><path class="cls-1" d="M13.39,19.25,16.26,16c.35.2.63.33.88.5C21.09,19.16,25,21.8,29,24.41a1.26,1.26,0,0,1,.68,1.45c-.22,1.24-.35,2.49-.55,4Z"/><path class="cls-1" d="M41.16,22.63C40.61,20,38.7,20,36.75,20.12a1.16,1.16,0,0,1,.54-1.7c3.62-2.09,7.21-4.21,10.8-6.35a1.23,1.23,0,0,1,1.53,0c1.16.82,2.36,1.6,3.7,2.5Z"/><path class="cls-1" d="M17.88,14.53c1.5-1,2.78-1.84,4.09-2.63a1.1,1.1,0,0,1,1,.07c3.73,2.17,7.45,4.36,11.14,6.6.36.22.47.84.84,1.55-2.32-.08-4.31-.14-4.81,2.51Z"/><path class="cls-1" d="M54.91,5.63C52.85,6.85,51,8,49.05,9.08a.94.94,0,0,1-.68,0C46.6,8.4,44.83,7.71,43,7V.76A34.6,34.6,0,0,1,54.91,5.63Z"/><path class="cls-1" d="M16.33,5.67A34.53,34.53,0,0,1,28.27.79V7c-1.82.72-3.64,1.45-5.47,2.15a.94.94,0,0,1-.68-.05C20.24,8,18.38,6.88,16.33,5.67Z"/><path class="cls-1" d="M5.2,16.9a69.89,69.89,0,0,0,1.43,7.27c.85,2.76-.32,5.2-.63,8L.59,28.62A34.51,34.51,0,0,1,5.2,16.9Z"/><path class="cls-1" d="M70.61,28.61,65.2,32.2c-.16-2.61-1.47-4.83-.74-7.44.69-2.45,1-5,1.54-7.84A36.44,36.44,0,0,1,70.61,28.61Z"/><path class="cls-1" d="M65,42.72c.19-2.57.37-5.15.58-7.72a.9.9,0,0,1,.3-.63c1.67-1.14,3.36-2.24,5-3.36l.37.11c0,2.3,0,4.6,0,6.9a1.06,1.06,0,0,1-.42.67q-2.83,2-5.69,4A.32.32,0,0,1,65,42.72Z"/><path class="cls-1" d="M.38,31c1.69,1.11,3.39,2.22,5.06,3.36a.9.9,0,0,1,.27.63c.19,2.57.35,5.15.53,7.78-2-1.38-4-2.8-6-4.24A.6.6,0,0,1,0,38.05q0-3.48,0-7Z"/><path class="cls-1" d="M46.53,10.6l-10,5.81v-8A25.72,25.72,0,0,1,46.53,10.6Z"/><path class="cls-1" d="M34.54,8.4v8l-9.87-5.85A27.81,27.81,0,0,1,34.54,8.4Z"/><path class="cls-1" d="M34.4,39.35c-1.24-1-2.43-1.91-3.59-2.87a1,1,0,0,1-.29-.71c.37-3.1.78-6.19,1.2-9.52,1,.67,1.83,1.2,2.64,1.79a.94.94,0,0,1,.23.65c0,3.45,0,6.89,0,10.33C34.58,39.08,34.52,39.14,34.4,39.35Z"/><path class="cls-1" d="M36.6,39.51V38.1c0-2.91,0-5.81,0-8.72a1.8,1.8,0,0,1,1-1.86,20.93,20.93,0,0,0,1.78-1.18,7.27,7.27,0,0,1,.23.83c.35,2.64.66,5.28,1,7.92a1.69,1.69,0,0,1-.78,1.85C38.83,37.67,37.85,38.52,36.6,39.51Z"/><path class="cls-1" d="M41.34,59.67a4.28,4.28,0,0,1-3.51,2.45,34.09,34.09,0,0,1-4.52,0,4.28,4.28,0,0,1-3.49-2.44,10.75,10.75,0,0,0,5.79-3.41A10.31,10.31,0,0,0,41.34,59.67Z"/><path class="cls-1" d="M40.73,6.65l-4.14-.4V0l4.14.34Z"/><path class="cls-1" d="M34.56,0V6.31l-4.05.38V.36Z"/><path class="cls-1" d="M35.55,26.34c-1.08-.73-2.17-1.37-3.13-2.17a1.68,1.68,0,0,1-.23-1.37,1.15,1.15,0,0,1,.89-.61c1.65-.06,3.3-.06,4.94,0a1.19,1.19,0,0,1,.91.61c.17.47.4,1.06-.28,1.48C37.61,24.92,36.61,25.63,35.55,26.34Z"/><path class="cls-1" d="M19.15,48.68v2.73c-2.15,0-4.24,0-6.33,0a1.08,1.08,0,0,1-.71-.51c-.44-.66-.81-1.37-1.28-2.19Z"/><path class="cls-1" d="M52.08,51.41V48.66h8a2.73,2.73,0,0,1-2.86,2.75Z"/><path class="cls-1" d="M63.69,46.22l6.88-4.86.32.17c-.51,1.53-1,3.06-1.55,4.58a.85.85,0,0,1-.64.39c-1.63,0-3.26,0-4.89,0Z"/><path class="cls-1" d="M.6,41.34l6.92,4.88-.11.29c-1.69,0-3.38,0-5.08,0a.75.75,0,0,1-.5-.44c-.53-1.5-1-3-1.52-4.52Z"/><path class="cls-1" d="M68.12,48.62c-.79,1-1.35,1.74-2,2.45a1.13,1.13,0,0,1-.73.31c-1.3,0-2.6,0-4.14,0,.52-1,.94-1.77,1.4-2.56a.77.77,0,0,1,.56-.2C64.75,48.61,66.25,48.62,68.12,48.62Z"/><path class="cls-1" d="M3.51,48.62c1.47,0,2.94,0,4.41,0a1.14,1.14,0,0,1,.79.5c.41.64.73,1.34,1.18,2.21-1.55,0-3.08.3-4.4-.1C4.6,51,4,49.73,3.28,48.92Z"/><path class="cls-1" d="M14,57.19,7.89,53.9,8,53.52c1.05,0,2.1,0,3.16,0a.51.51,0,0,1,.34.2c.89,1.06,1.76,2.13,2.64,3.19Z"/><path class="cls-1" d="M56.86,57.14c1-1.24,1.86-2.28,2.74-3.28a1.25,1.25,0,0,1,.81-.35c.91,0,1.82,0,3.05,0A21,21,0,0,1,56.86,57.14Z"/></g></g></svg>