<svg xmlns="http://www.w3.org/2000/svg" viewBox="0 0 285.03 78.02"><defs><style>.cls-1{font-size:54.9px;font-family:Caladea-Bold, Caladea;font-weight:700;}.cls-1,.cls-3{fill:#c6c6c6;}.cls-2{letter-spacing:-0.01em;}.cls-4{fill:#f27376;}</style></defs><g id="Layer_2" data-name="Layer 2"><g id="Layer_1-2" data-name="Layer 1"><text class="cls-1" transform="translate(77.99 55.25)">VBut<tspan class="cls-2" x="123.36" y="0">t</tspan><tspan x="142.63" y="0">on</tspan></text><path class="cls-3" d="M36.51,33.77v0Z"/><path class="cls-4" d="M60.69,78h0Z"/><path class="cls-3" d="M63.05,36.58A26.54,26.54,0,1,1,36.6,10.1,26.57,26.57,0,0,1,63.05,36.58ZM27.51,23.73a4.17,4.17,0,0,0-4.26,3.91,4.22,4.22,0,0,0,4.14,4.28,4.09,4.09,0,0,0,4.08-4.05A4,4,0,0,0,27.51,23.73Zm4,21.41a4.09,4.09,0,0,0-4.09-4,4.21,4.21,0,0,0-4.13,4.06,4.15,4.15,0,0,0,4.27,4.13A4,4,0,0,0,31.47,45.14ZM49.76,27.88a4.12,4.12,0,0,0-8.24-.25,4.12,4.12,0,1,0,8.24.25ZM45.54,49.29a4.1,4.1,0,1,0,.09-8.19,4.17,4.17,0,0,0-4.11,4.06A4.12,4.12,0,0,0,45.54,49.29Z"/><path class="cls-3" d="M36.51,73A36.51,36.51,0,1,1,73,36.51,36.55,36.55,0,0,1,36.51,73ZM36.51,5A31.56,31.56,0,1,0,68.07,36.51,31.6,31.6,0,0,0,36.51,5Z"/></g></g></svg>