<svg xmlns="http://www.w3.org/2000/svg" viewBox="0 0 280.46 69.65"><defs><style>.cls-1{fill:#c6c6c6;}.cls-2{isolation:isolate;}</style></defs><g id="Layer_2" data-name="Layer 2"><g id="Layer_1-2" data-name="Layer 1"><g id="Layer_1-2-2" data-name="Layer 1-2"><path class="cls-1" d="M8.05,48.79l2-1.63c1.38-3.38.81-7.29.22-11.15a7.53,7.53,0,0,0-1.55-3.54A10.71,10.71,0,0,1,7.22,20l.17-.19L7.26,20l-1.61-.8,1.6-1.61V15.15l1.66-.75h.81l.8.8.2.18-.25-.13-.79-.8H8.9L7.08,13.8l.18,1.39v2.42H5.64l-.81-.82-.11-.13.13.11.83.81-.06,1.57L0,13.6v-.8c.77-.86,1.52-1.73,2.33-2.55A19.07,19.07,0,0,1,4,8.8l1.86,1.87L3.24,12,1.29,13.07l2,.51.4,1.53,1-1.08-1.45-.41V12h4.9l.23.21L8,12,7.1,8.77H4c1.54-2.57,3.55-4.5,6.53-4.85L16,6.08l.75-4.94L19.33,0H30.6l2.51,5.63c1.72.55,3.11-.84,4.52-1.66,3.86-.06,5.14,3.7,8.26,5v3.82l.24.26-.3-.21L46,11.25l2.94,2.17c-2.78,2.38-3.85,5.81-7.63,6.79,1.61,3.47,3.16,7.15-1,10.18H38.63V28.8l.14-.3-.09.35v1.52h1.57c-.06.5.07,1.15-.2,1.49A10.68,10.68,0,0,0,37.94,39a31.36,31.36,0,0,1-.7,4.63l1,3.83c2.33.87,3.88,2,4.24,4.92.25,2,2,3.85,2.67,5,.12,6-4.36,8-7.1,11.63-9.09,1.09-18.39.55-27.29.12-2.06-1.8-4-3.09-5.35-4.79a36.66,36.66,0,0,1-3.23-5.6c1.34-2.74,2.56-5.51,4-8.18.38-.73,1.27-1.19,1.93-1.78l.8.8h.8L11.49,51c3.41-2.27,2.5-6.84,5.25-9.28-.3-2.76-.49-5.37-.9-7.94-.1-.63-.91-1.14-1.39-1.71-.07-.32-.14-.63,0-.2-.26-.37-.08-.11.1.15-.55,1.13-1.5,2.26-1.55,3.45-.35,4.52-.44,9.06-.62,13.64l-2.64.5H8.89ZM21.74,11.18h.79l1.62-.8,2.43.8h.8l.79-2.4,2.39-2.42h.9c.06.3.13.6,0,.2l-.09-.14h-.8l-1.32-.86L28.2,8.81H26.61l-.83.82H24.16l-.84-.82h-.74l-.12.11.08-.15h.82l.84.81v.82l-1.6.82h-.9L21.57,11Zm-4.84,8h-.75V15.74l-2.48-.51v-.84c.06-.09.18-.2.17-.29a1.91,1.91,0,0,0-.19-.5l-.8-.76-.15-.26.2.21.81.76v.87l-1.21.37,1.22.39,1.61,1.45V19.2l-.81,1.62c-.19.27-.38.55-.07.11-.13.54,0,.2,0-.14l.79-1.64.84.05h.82l.77-.85.21-.25-.16.3Zm2.43,0-.14.3.09-.35.27-.1ZM21.74,64l.13.1-.11-.1v-.8c.52-.54,1-1.09,1.57-1.63h.85l.51,2.07c4.73-1.83,5-2.33,5.11-7.65l.12-.12-.13.11L29,54.38l.21-.18-.16.23c-.94-.33-1.91-.6-2.83-1-1.27-.54-2.21-.31-2.79,1l-1.65-.83v-.79l.11-.12-.14.09-.78.81-.79.81-.84.76v1.62c-.3,2.53,1.27,4.38,2.38,6.4-.07.1-.2.21-.19.3A2.36,2.36,0,0,0,21.74,64ZM29,63.18c-.06.1-.18.21-.17.3A2.43,2.43,0,0,0,29,64h4c1.57-1.28.16-2.16-.4-3.09l-2,1.51h-.83Zm2.46-42.34-.06-.05.15-.28ZM18.53,61.6l.1-.14-.12.12h-.82l-.82-.8-.79-3.18v-.83l1.71-1.08L16.1,56l1.49-2.24-1.48-.94H14.48l-.28-.18.33.13L11.7,54.19l1.06,2.49,3.37.9a3.64,3.64,0,0,1-4.72.15l-.26-.29-1.5-4.66c.1-.09.29-.19.27-.26A2,2,0,0,0,9.68,52l-.13-.09.09.13v.79c-1,1.43-1,6.13,0,8.79l-.76,1.62-1.5-.75L8.45,64.4l.37-1.22a8.91,8.91,0,0,0,7.26,0c.09-.09.26-.2.24-.27a1.8,1.8,0,0,0-.25-.5l-.26-1.34.52-.48a1.94,1.94,0,0,1,.58.17l.8.81.39.47ZM11.25,22.44l-.75-.86L9.65,20l-.06-.17.1.14v1.62H8.87l-.18-.21.22.16v1.64H8.05l-.11-.13.14.11h.77l.78-1.61.83.05.84.77.8.8V24l-1.64,1.57-.52,1.16,1.34.42h2.44V28l-.17.26.11-.31,1.24-.28-1.22-.45-1.61-.82V24c.09-.09.27-.2.25-.26a1.93,1.93,0,0,0-.26-.49v-.87l.8-2.4.81-1.58.61-.94-1.41-.62-.21-.16.25.11v.84H10.45l-.82-.82-.1-.2.15.15.82.83L12.9,20l-1,.41.25,2ZM29,24.84V24h1.65c.13.29.25.57.07.15.24.38.08.13-.09-.13v-.81l.16-.14-.14.16-2.43-.78-.84-.82.06-.79H29l.1.14L29,20.8V20l.54-1.16L29,20l-1.62.82L26,20.62l-.23,1-1.6.78-.81.84-1.6,1.57L20.14,26.4l-.83.82L17.73,28.8l-.16.16.14-.18h.84c.1.27.19.55.06.17.26.3.08.09-.11-.12l.79-1.62.83-.82,1.62-1.58,1.6-1.58.8-.85,1.69,1-.54.47,1.29,1.76.21.18-.25-.13L27.1,24l-1.36-2.33h1.65l.84.81L29,24c-.09.09-.29.21-.27.27a2.69,2.69,0,0,0,.28.53V28l-.22.26L29,28c.1-.08.29-.2.27-.26A2.73,2.73,0,0,0,29,27.2V25.6c.09-.09.28-.2.26-.25A2.45,2.45,0,0,0,29,24.84ZM8,25.63l-.18-.19.23.14.22.19Zm16.11,0-.39-.46-.4.46L21.75,28c-.73.29-2.11.25-.78,1.56v.83c-.06.09-.18.19-.17.27a2.52,2.52,0,0,0,.17.53l-.39,1.71H21l-.12-1.68v-.89c.09-.08.26-.18.25-.23a2.38,2.38,0,0,0-.24-.51L21.74,28l1.58-2.43h.88l.8.82.27.18L25,26.43Zm-4-20.83.81-.8,2.78.33L24.79,8l1.85-5L21,4l-.78.84h-.9l-.15-.28.19.22.41.48ZM29,2.36l.2-.24-.2.29-.23.17Zm4,24.06-.09-.14.12.11v.77l-1.84.28.1.33,1.79-.55.38-.14.37.13.85.77.31.21L34.6,28v-.86l1.63-.78h.84l1.63.85-.88-1.63L38,24.39,37,24V22.38l.85-.77L38.67,20l.1-.13-.12.11-.81,1.61-.78.83h-.84V20.77l.21-.16a1.07,1.07,0,0,1-.15.22v1.56L37.06,24v1.61l-.84.79H34.58l-.43-1.3c-.15.59-.23.95-.32,1.3ZM22.54,1.58l.17-.12-.13.15-.14.1Zm16.13,48,.19.18-.24-.14-.19-.18ZM23.36,28.82l-.23.18.2-.21.15-.13ZM30.61,41.6l.11-.13-.12.12-.11.12Zm-7.26-8.81c.07-.1.2-.2.19-.29a1.87,1.87,0,0,0-.2-.51c-.06-.24-.13-.48,0-.11-.25-.3-.09-.11.07.08v.84l-.15.15Zm7.26-1.59H29.8l-1.24.08.14.44,1.13-.48h.81l.11.12ZM43.49,16.79l.13-.11-.12.12-.81.8h-1.6L40.72,17h0l.4.63h1.61Zm-4.84,0,.16-.21-.11.26-.83.82-1.57.81H34.61l.79-1.63.23-.17-.19.22-2.3.52-.26-.56,1.72-1.61,1.61-.8.84-.8.79-.82.2-.24-.16.29-.79.82h-.85l-.56-1.14-1,1.14c-.08.09-.23.19-.22.27a2.54,2.54,0,0,0,.2.52v.84l-2.42-.05V14.4l.49-.82-.11-.07-.42.86c-1.45-.09-2.35.53-3.08,2.28l3.06-1.41.45,3.3,2-.16h1.6l1.58-.8Zm-.81-1.6.81-.8.14-.1-.1.15-.8.79-.24.21Zm7.29-.81.11.24-.16-.19-.82-.79-.8-.8-.81-.8c-1.6-1.52,1.22-1.68.78-3.13H41.05l-.19,3.77L42.71,12l.79.8.81.81ZM10.44,12.84l-.21-.25.27.2.25.16Zm.84,20,.78-1.64V29.64L12,29.47l.14.12V31.2l-.85,1.59-.11.12ZM33,21.61l.53-.71-.09-.07-.46.76-.21.21Zm.82,37.56.81,1.61,1.6,1.58c.21,1,.4,2.07,2.19,1l-2.24-.93.14-2.93.75-.11L37.58,61l3-.9-3.93-2.19L37,56l1.8,1.25c-.18-2.73-.43-2.93-3.37-2.81l-1.87-.2-1.4,1-.57-1.41-.84.65,1.46.71,1.6,2.41v.81c-.16.13-.31.27-.46.41Zm5.6-35.95L39.29,23l.2.16.79,1.58.2.23-.25-.19V23.19l.22-.15-.18.19ZM25.77,33.57l.11.11-.14-.08-.29-1.16c-.2.49-.34.82-.49,1.15Zm10.48-2.39c.11.29.22.58,0,.11.3.4.12.16-.06-.09V29.57l.24-.17-.19.23ZM20.94,48.82,19.27,48l1.5-2c1.22-3.12-2-5.8.11-9.09l1.4,3.72V35.56l-4.75-1.77c.44,3.1.84,5.75,1.18,8.4.25,1.92.41,3.85.62,5.78l1.65.79.77,1.6.1.14-.14-.1Zm9.63,1.54h.88l1,.43.12-.43-1.22.06-.77-1.63-1.16-5-.86.14.42,4.9c-.88.24-1.9.39-1.16,1.75l1.14-.2ZM15.31,48.83l-.06.09c-.08.46,0,.16,0-.14L16.1,48l1.54-2.72-.39-.23L16.09,48ZM8.87,8l.83.82.81,3c.64-2.5,2.23-4.25-.25-6.18L8.88,7.22,7.74,6.79l-.23.53Zm5.62,17.6.13.12-.11-.13L14.15,24l-.32.12Zm2.41-2.42L19,22.13l-1.31-.55-.82-.53-.1.15.9.41L16.9,23.2l-.2.16Zm2.44.84-1.86.9.93.79.9-1.73,1.27-.73-.3-.39ZM9.66,30.37l.48-1.73-.43-.11v1.89l-.22.21ZM16.91,8l1.66-1.68C18.76,7.39,18.84,8.57,21,8l-2.5-1.56-1.21-.6L16.92,8l-.12.12Zm4.83,12.82.61,1,1.48-1.3L22.57,20c-1.35-.95-1.67,0-2.33,1Zm-4-9.65.31-1.75h-.66l.3,1.77-.1,2,2.56-.44L22.89,15c1.47-.31,3.44.87,4.06-1.6l-1.19-.57L24.05,12l.13,1.64-4.05-.82ZM5.66,56l-.78,5.27.44,0L5.61,56l.2-.15ZM33.81,10.43l.62,1.31,1.76-1-2.33-.36L36.25,8,38,11.24,38.66,8l.39.49L39.46,8l2-.8-3.7-1.59L36.29,8.06l-1.51-.84C33.52,8.08,32.72,9,33.81,10.43Zm1.63,26.38-1.6-3.22.1-.11-.12.1-1.16.12c-1.07,8.14,0,12.46,3.78,16.74-1.26-1.91-.58-4.13-1.42-6.29s.2-4.88.4-7.36l.13-.13Zm-8.06-1.62-1.51,1.75-2.19.15c-1,12.47-1,12.47,1.74,13.9.14-2.07.41-4,.38-5.91s-.32-4.08-.55-6.63l2.13,1.63V35.19c2.13,2.21.22,4.89.8,7.32C29,39.44,33.34,37,29.71,33Zm.84-22.25,3.59-1.15V9ZM42.35,56.18h-.2v5.31h.2ZM23.75,18.41l.19-.37a7.61,7.61,0,0,0-1.47-.83,7.08,7.08,0,0,0-1.59-.15l-.07.58ZM40.83,55.35h-.22v3H41ZM20,2.07l-.06-.26-1.79.27.07.4ZM19,14.58l-.6.4.6,1.45.68-.32ZM7.19,57.35l-.45.24.61,1.15.49-.27Zm16.35,9.22.14-.3c-.18-.13-.35-.34-.56-.39s-.42.09-.63.14Zm7.78-13.91-.06-.34H29.84v.14ZM26.11,18l-.33-.31-.63,1.1ZM18.66,65.35v-.2H17.61v.2ZM41.41,14.11,41,13.75l-1,1.51ZM13.9,11.47l.39-.43-1.66-.73ZM31.51,29.21l-.26-.15-.05.19ZM27,1.37l-.06.56ZM15.78,13.46h-.19l.07.31ZM28,17.29a4.63,4.63,0,0,0-.31.46l.22.17Zm7.84,35.09a2.37,2.37,0,0,0-.46-.11l-.11.19ZM14,8.4V8.29h-.62v.17Zm3.3,23.2-.66-.06Zm-.64,19.23.32.11-.22-.34ZM11.63,36h.24l-.1-.32ZM31.72,47.52l.13-.59c-.08,0-.22.06-.22.1A2,2,0,0,0,31.72,47.52ZM19.8,10.3l-.16.29h.19ZM33.36,29.41a1.33,1.33,0,0,0-.1.34l.22.12a1.37,1.37,0,0,0,.08-.35ZM15.61,11a1.18,1.18,0,0,0-.1.3l.21.1a1.11,1.11,0,0,0,.08-.3A.54.54,0,0,0,15.61,11Zm25.1,16.81-.14.28.19.05ZM11.88,52.49l.31-.09-.32-.09Zm0,12.74a1.3,1.3,0,0,0,.34.08l.12-.2A1.35,1.35,0,0,0,12,65l-.13.23Zm6.23,2.33a2.07,2.07,0,0,0-.43-.1l-.12.17Z"/><g class="cls-2"><g class="cls-2"><path class="cls-1" d="M55.73,20.89a3,3,0,0,0-.58-2.14,3.18,3.18,0,0,0-2.1-.67l.13-1.69c.38-.09,1.15-.23,2.34-.43,2.8-.44,4.66-.78,5.58-1l.74.39v18a6.69,6.69,0,0,0,2.77,1.17l-.18,1.69H53.31l.17-1.77a4.57,4.57,0,0,0,2.25-1.09ZM58.87,6.35c2.3,0,3.44,1,3.44,3s-1.14,3-3.44,3-3.44-1-3.44-3S56.58,6.35,58.87,6.35Z"/><path class="cls-1" d="M81.83,22q0-4.16-2.68-4.15a4.17,4.17,0,0,0-2.19.64A4.77,4.77,0,0,0,75.3,20.2V33.35a6.75,6.75,0,0,0,2.59,1.17l-.17,1.69h-11l.13-1.77a4.63,4.63,0,0,0,2.29-1.09V20.89a3,3,0,0,0-.6-2.14,3.28,3.28,0,0,0-2.12-.67l.13-1.69c4.33-.81,6.79-1.3,7.4-1.47l.78.39.34,2.51a8,8,0,0,1,6.37-2.9,6.3,6.3,0,0,1,4.69,1.77,6.64,6.64,0,0,1,1.76,4.89V33.35a6.69,6.69,0,0,0,2.77,1.17l-.18,1.69h-11l.13-1.69a3.72,3.72,0,0,0,2.12-1.17Z"/><path class="cls-1" d="M107.37,33.4a6.45,6.45,0,0,1-5.91,3.11,7.26,7.26,0,0,1-6.06-2.59C94,32.18,93.34,29.56,93.34,26s.83-6.25,2.49-8.2a8.78,8.78,0,0,1,7.08-2.92,9,9,0,0,1,4.28,1v-3.9a2.86,2.86,0,0,0-.65-2.19,3.92,3.92,0,0,0-2.38-.67l.13-1.68A75.21,75.21,0,0,0,112.56,6l.74.44V33.53a5.47,5.47,0,0,0,2.59,1.17l-.17,1.51h-7.79Zm-.18-7.32v-8a4.72,4.72,0,0,0-2.81-.83q-4.71,0-4.72,9.05,0,7.62,3.6,7.62C105.88,33.92,107.19,31.3,107.19,26.08Z"/><path class="cls-1" d="M121.3,20.89a3,3,0,0,0-.58-2.14,3.18,3.18,0,0,0-2.1-.67l.13-1.69c.37-.09,1.15-.23,2.34-.43,2.79-.44,4.66-.78,5.58-1l.74.39v18a6.69,6.69,0,0,0,2.77,1.17L130,36.21H118.88l.17-1.77a4.66,4.66,0,0,0,2.25-1.09Zm3.14-14.54q3.44,0,3.44,3t-3.44,3q-3.43,0-3.44-3T124.44,6.35Z"/><path class="cls-1" d="M138.31,36.51a6.84,6.84,0,0,1-4.59-1.38,5.06,5.06,0,0,1-1.6-4q0-5.75,8.53-6.36l3.81-.26V22a8.65,8.65,0,0,0-.72-4.2,2.39,2.39,0,0,0-2.2-1.17,3.66,3.66,0,0,0-2.3.63,2,2,0,0,0-.8,1.65,2.18,2.18,0,0,0,.95,1.75,2.81,2.81,0,0,1-1,1.73,3.31,3.31,0,0,1-2.12.65A3.15,3.15,0,0,1,134,22.1a3,3,0,0,1-.95-2.25,4,4,0,0,1,2.19-3.61,11.65,11.65,0,0,1,6-1.32q9.31,0,9.31,6.83V33.53a4.61,4.61,0,0,0,2.6,1.17L153,36.21h-7.79l-.43-2.47A8.84,8.84,0,0,1,138.31,36.51Zm.56-8.65a3.19,3.19,0,0,0-1,2.55c0,2.19.86,3.29,2.59,3.29q2,0,4-2.38V26.6l-2.17.18A5.81,5.81,0,0,0,138.87,27.86Z"/><path class="cls-1" d="M159.09,29.76c2,0,3,1.11,3,3.31s-1,3.31-3,3.31a2.85,2.85,0,0,1-2.28-.88,3.62,3.62,0,0,1-.75-2.41Q156.06,29.76,159.09,29.76Z"/><path class="cls-1" d="M168.33,16.93a9.27,9.27,0,0,1,6.23-2,11.62,11.62,0,0,1,6.17,1.42,1.82,1.82,0,0,0,.6-1.47c0-.63-.4-1.15-1.21-1.56a1.37,1.37,0,0,1,.71-1.16,3.09,3.09,0,0,1,1.76-.48,2.41,2.41,0,0,1,1.71.63A2.19,2.19,0,0,1,185,14a3.61,3.61,0,0,1-.76,2.1,5.15,5.15,0,0,1-1.88,1.63,7.76,7.76,0,0,1,1.6,5.08,6.27,6.27,0,0,1-2.43,5.11,10.05,10.05,0,0,1-6.53,2h-.69l-1.47,1.86c.08.58.92.86,2.51.86h1.81q4.29,0,6.54,1.67a5.66,5.66,0,0,1,2.25,4.85A5.49,5.49,0,0,1,183.28,44c-1.76,1.14-4.32,1.71-7.66,1.71a17.46,17.46,0,0,1-7.79-1.41,4.39,4.39,0,0,1-2.77-4c0-2.2,1.12-4,3.37-5.54a4.87,4.87,0,0,1-.64-2.6l3.76-2.64a7.9,7.9,0,0,1-4.11-2.53A6.66,6.66,0,0,1,166,22.58,7,7,0,0,1,168.33,16.93Zm7.76,19.28h-3.93l-.26.26a4.23,4.23,0,0,0-1.22,3.12,3.22,3.22,0,0,0,1.22,2.79,6.49,6.49,0,0,0,3.81.88q5.19,0,5.19-3.67C180.9,37.33,179.3,36.21,176.09,36.21Zm-4-13.55a9.29,9.29,0,0,0,.58,4,2.48,2.48,0,0,0,2.36,1,2.67,2.67,0,0,0,2.47-1.11,8.18,8.18,0,0,0,.69-4,8.83,8.83,0,0,0-.75-4.22,2.55,2.55,0,0,0-2.36-1.3,2.4,2.4,0,0,0-2.3,1.3A9.69,9.69,0,0,0,172.07,22.66Z"/></g><g class="cls-2"><path class="cls-1" d="M190.4,33.74c-1.76-1.84-2.64-4.53-2.64-8s.88-6.19,2.64-8,4.36-2.74,7.79-2.74,6,.91,7.77,2.74,2.62,4.51,2.62,8-.87,6.21-2.62,8.05-4.34,2.77-7.77,2.77S192.16,35.59,190.4,33.74Zm7.79-16.4a3.22,3.22,0,0,0-3.11,1.95q-1,2-1,6.42t1,6.43a3.44,3.44,0,0,0,6.21,0,16.13,16.13,0,0,0,.93-6.43,16,16,0,0,0-.93-6.4A3.2,3.2,0,0,0,198.19,17.34Z"/></g><g class="cls-2"><path class="cls-1" d="M222.56,35.87h-4.45l-6.24-17.62a3,3,0,0,0-2.68-1.81l.09-1.52h11.34l-.22,1.52a4.47,4.47,0,0,0-2.47.82l4.29,12.07L227,17.39a7.49,7.49,0,0,0-2.81-.95l.17-1.52h8l-.18,1.52a2.88,2.88,0,0,0-2.25,1Z"/></g><g class="cls-2"><path class="cls-1" d="M234.7,29.76c2,0,3,1.11,3,3.31s-1,3.31-3,3.31a2.81,2.81,0,0,1-2.27-.88,3.57,3.57,0,0,1-.76-2.41Q231.67,29.76,234.7,29.76Z"/><path class="cls-1" d="M243.7,20.89a3,3,0,0,0-.58-2.14,3.18,3.18,0,0,0-2.1-.67l.13-1.69c.38-.09,1.15-.23,2.34-.43,2.8-.44,4.66-.78,5.58-1l.74.39v18a6.69,6.69,0,0,0,2.77,1.17l-.18,1.69H241.28l.17-1.77a4.57,4.57,0,0,0,2.25-1.09Zm3.14-14.54q3.43,0,3.44,3t-3.44,3q-3.43,0-3.44-3T246.84,6.35Z"/><path class="cls-1" d="M269.8,22q0-4.16-2.68-4.15a4.17,4.17,0,0,0-2.19.64,4.69,4.69,0,0,0-1.66,1.74V33.35a6.68,6.68,0,0,0,2.59,1.17l-.17,1.69H254.74l.13-1.77a4.63,4.63,0,0,0,2.29-1.09V20.89a3,3,0,0,0-.6-2.14,3.28,3.28,0,0,0-2.12-.67l.13-1.69q6.48-1.21,7.4-1.47l.78.39.34,2.51a8,8,0,0,1,6.37-2.9,6.3,6.3,0,0,1,4.69,1.77,6.64,6.64,0,0,1,1.75,4.89V33.35a6.75,6.75,0,0,0,2.77,1.17l-.17,1.69H267.55l.13-1.69a3.72,3.72,0,0,0,2.12-1.17Z"/></g></g><g class="cls-2"><path class="cls-1" d="M62,55.36c0-1.55-.67-2.32-2-2.32a2.51,2.51,0,0,0-1.52.55A3.47,3.47,0,0,0,57.38,55v6.59a3.75,3.75,0,0,0,1.63.65l-.09.8H53.76l.09-.84a3.21,3.21,0,0,0,1.55-.61V54.93A1.51,1.51,0,0,0,55,53.76a2.1,2.1,0,0,0-1.27-.37l.07-.67c.2,0,1.15-.3,2.85-.8l.42.21.21,1.45a3.8,3.8,0,0,1,1.37-1.21,3.53,3.53,0,0,1,1.71-.45,3.81,3.81,0,0,1,2.65.86,3,3,0,0,1,1,2.36v6.45a3.8,3.8,0,0,0,1.63.65l-.09.8H60.39l.07-.8A3.24,3.24,0,0,0,62,61.59Z"/><path class="cls-1" d="M70.15,63.2a3.27,3.27,0,0,1-2.24-.7,2.64,2.64,0,0,1-.79-2.09,2.72,2.72,0,0,1,1.12-2.26,5.74,5.74,0,0,1,3.24-1L73.4,57V55.1a2.53,2.53,0,0,0-.49-1.71,2.1,2.1,0,0,0-1.59-.53c-1.29,0-1.94.35-1.94,1a.9.9,0,0,0,.7.86c0,.75-.44,1.12-1.33,1.12a1.27,1.27,0,0,1-1.35-1.35,2.19,2.19,0,0,1,1.06-1.91,5.23,5.23,0,0,1,2.92-.71,4.64,4.64,0,0,1,2.93.84,2.82,2.82,0,0,1,1.07,2.34v6.51a4.12,4.12,0,0,0,1.64.63l-.1.8H73.7l-.23-1A4.68,4.68,0,0,1,70.15,63.2Zm-1-2.87c0,1.28.52,1.91,1.57,1.91a4.06,4.06,0,0,0,2.66-1.35V58l-1.87.16a2.76,2.76,0,0,0-1.73.69A2,2,0,0,0,69.17,60.33Z"/><path class="cls-1" d="M85.26,62.41a4.46,4.46,0,0,1-2.7.86,2.7,2.7,0,0,1-2.09-.65,3.47,3.47,0,0,1-.56-2.22v-7H78v-.7a4.47,4.47,0,0,0,3-2.82h.93v2.26h3v1.26h-3v7.17a2.53,2.53,0,0,0,.22,1.24c.15.25.49.37,1,.37a3.34,3.34,0,0,0,1.63-.46Z"/><path class="cls-1" d="M87.8,54.89a1.53,1.53,0,0,0-.36-1.18,2.11,2.11,0,0,0-1.27-.36l.07-.68c.59-.11,1.62-.38,3.08-.82l.47.26v9.5a4.2,4.2,0,0,0,1.63.63l-.09.8H86.17l.09-.84a3.68,3.68,0,0,0,1.54-.59Zm.88-7.17q1.23,0,1.23,1.35c0,.91-.41,1.36-1.23,1.36s-1.23-.45-1.23-1.36S87.86,47.72,88.68,47.72Z"/><path class="cls-1" d="M94.35,61.75a6.25,6.25,0,0,1-1.25-4.2,6.22,6.22,0,0,1,1.25-4.19,5.49,5.49,0,0,1,7.41,0A6.22,6.22,0,0,1,103,57.55a6.25,6.25,0,0,1-1.24,4.2,5.46,5.46,0,0,1-7.41,0Zm1.52-7.69a6.91,6.91,0,0,0-.66,3.49,7,7,0,0,0,.66,3.5,2.36,2.36,0,0,0,2.18,1.08,2.42,2.42,0,0,0,2.21-1.08,6.69,6.69,0,0,0,.69-3.5,6.77,6.77,0,0,0-.68-3.49,2.81,2.81,0,0,0-4.4,0Z"/><path class="cls-1" d="M113.21,55.36c0-1.55-.67-2.32-2-2.32a2.51,2.51,0,0,0-1.52.55,3.56,3.56,0,0,0-1.1,1.41v6.59a3.79,3.79,0,0,0,1.64.65l-.09.8H105l.09-.84a3.17,3.17,0,0,0,1.54-.61V54.93a1.51,1.51,0,0,0-.36-1.17,2.13,2.13,0,0,0-1.27-.37l.07-.67c.2,0,1.15-.3,2.84-.8l.42.21.21,1.45a3.89,3.89,0,0,1,1.37-1.21,3.56,3.56,0,0,1,1.72-.45,3.82,3.82,0,0,1,2.65.86,3,3,0,0,1,.94,2.36v6.45a3.85,3.85,0,0,0,1.64.65l-.1.8H111.6l.07-.8a3.28,3.28,0,0,0,1.54-.65Z"/><path class="cls-1" d="M121.36,63.2a3.23,3.23,0,0,1-2.24-.7,2.64,2.64,0,0,1-.8-2.09,2.72,2.72,0,0,1,1.12-2.26,5.77,5.77,0,0,1,3.25-1L124.6,57V55.1a2.48,2.48,0,0,0-.49-1.71,2.07,2.07,0,0,0-1.59-.53c-1.29,0-1.93.35-1.93,1a.9.9,0,0,0,.7.86c0,.75-.45,1.12-1.33,1.12a1.3,1.3,0,0,1-1-.37,1.33,1.33,0,0,1-.38-1,2.22,2.22,0,0,1,1.06-1.91,5.25,5.25,0,0,1,2.92-.71,4.62,4.62,0,0,1,2.93.84,2.8,2.8,0,0,1,1.08,2.34v6.51a4.06,4.06,0,0,0,1.63.63l-.09.8h-3.22l-.24-1A4.66,4.66,0,0,1,121.36,63.2Zm-1-2.87c0,1.28.52,1.91,1.56,1.91a4,4,0,0,0,2.66-1.35V58l-1.87.16a2.73,2.73,0,0,0-1.72.69A2,2,0,0,0,120.38,60.33Z"/><path class="cls-1" d="M130.86,49.8a1.57,1.57,0,0,0-.35-1.18,2.1,2.1,0,0,0-1.28-.36l.07-.7c.56-.1,1.59-.36,3.1-.8l.44.24V61.59a3.7,3.7,0,0,0,1.64.63l-.09.82h-5.16l.09-.87a3.09,3.09,0,0,0,1.54-.58Z"/><path class="cls-1" d="M142.61,54.91a1.54,1.54,0,0,0-.36-1.18,2.05,2.05,0,0,0-1.26-.36l.07-.68c.21,0,1.15-.29,2.85-.79l.42.23.21,1.43a3.29,3.29,0,0,1,3.06-1.64q4.28,0,4.28,5.42a6.3,6.3,0,0,1-1.36,4.35,5,5,0,0,1-3.92,1.51,5.08,5.08,0,0,1-2-.37v3.69a3.93,3.93,0,0,0,1.61.63l-.07.79H141l.1-.84a3.17,3.17,0,0,0,1.52-.58Zm4.8-2c-1.86,0-2.8,1.46-2.8,4.39v4.43a4.52,4.52,0,0,0,2.2.47A2.51,2.51,0,0,0,149,60.94a6.61,6.61,0,0,0,.83-3.58,7.5,7.5,0,0,0-.58-3.36A2,2,0,0,0,147.41,52.93Z"/><path class="cls-1" d="M155.62,61.75a6.25,6.25,0,0,1-1.25-4.2,6.22,6.22,0,0,1,1.25-4.19,5.47,5.47,0,0,1,7.4,0,6.17,6.17,0,0,1,1.25,4.19,6.2,6.2,0,0,1-1.25,4.2,5.45,5.45,0,0,1-7.4,0Zm1.52-7.69a6.89,6.89,0,0,0-.67,3.49,6.93,6.93,0,0,0,.67,3.5,2.36,2.36,0,0,0,2.18,1.08,2.43,2.43,0,0,0,2.21-1.08,6.69,6.69,0,0,0,.69-3.5,6.77,6.77,0,0,0-.68-3.49A2.42,2.42,0,0,0,159.33,53,2.37,2.37,0,0,0,157.14,54.06Z"/><path class="cls-1" d="M173,51.92a2.32,2.32,0,0,1,1.46.49,1.53,1.53,0,0,1,.62,1.24,1.87,1.87,0,0,1-.34,1.19,1,1,0,0,1-.82.45,1.63,1.63,0,0,1-.82-.2.89.89,0,0,1-.45-.53.85.85,0,0,0,.24-.65c0-.47-.22-.7-.66-.7s-.87.31-1.32.94a3.48,3.48,0,0,0-.66,2v5.42a5,5,0,0,0,1.84.65L172,63h-5.37l.09-.84a3.44,3.44,0,0,0,1.54-.61V54.93a1.51,1.51,0,0,0-.36-1.17,2.13,2.13,0,0,0-1.27-.37l.07-.67c.2,0,1.15-.3,2.85-.8l.42.21.23,1.64A3.45,3.45,0,0,1,173,51.92Z"/><path class="cls-1" d="M183,62.41a4.41,4.41,0,0,1-2.69.86,2.69,2.69,0,0,1-2.09-.65,3.41,3.41,0,0,1-.56-2.22v-7h-1.89v-.7a4.46,4.46,0,0,0,3-2.82h.94v2.26h3v1.26h-3v7.17a2.53,2.53,0,0,0,.22,1.24c.14.25.48.37,1,.37a3.38,3.38,0,0,0,1.64-.46Z"/><path class="cls-1" d="M187.15,63.2a3.27,3.27,0,0,1-2.24-.7,2.64,2.64,0,0,1-.79-2.09,2.72,2.72,0,0,1,1.12-2.26,5.77,5.77,0,0,1,3.25-1L190.4,57V55.1a2.48,2.48,0,0,0-.49-1.71,2.1,2.1,0,0,0-1.59-.53c-1.29,0-1.94.35-1.94,1a.91.91,0,0,0,.7.86c0,.75-.44,1.12-1.33,1.12a1.27,1.27,0,0,1-1.35-1.35,2.19,2.19,0,0,1,1.06-1.91,5.23,5.23,0,0,1,2.92-.71,4.64,4.64,0,0,1,2.93.84,2.79,2.79,0,0,1,1.07,2.34v6.51a4.18,4.18,0,0,0,1.64.63l-.09.8H190.7l-.23-1A4.68,4.68,0,0,1,187.15,63.2Zm-1-2.87c0,1.28.53,1.91,1.57,1.91a4.06,4.06,0,0,0,2.66-1.35V58l-1.87.16a2.76,2.76,0,0,0-1.73.69A2,2,0,0,0,186.17,60.33Z"/><path class="cls-1" d="M196.66,49.8a1.57,1.57,0,0,0-.35-1.18,2.13,2.13,0,0,0-1.29-.36l.07-.7c.56-.1,1.6-.36,3.11-.8l.44.24V61.59a3.7,3.7,0,0,0,1.64.63l-.1.82H195l.1-.87a3.13,3.13,0,0,0,1.54-.58Z"/><path class="cls-1" d="M208.44,61.75a6.2,6.2,0,0,1-1.25-4.2,6.17,6.17,0,0,1,1.25-4.19,5.47,5.47,0,0,1,7.4,0,6.22,6.22,0,0,1,1.25,4.19,6.25,6.25,0,0,1-1.25,4.2,5.45,5.45,0,0,1-7.4,0ZM210,54.06a6.78,6.78,0,0,0-.67,3.49,6.83,6.83,0,0,0,.67,3.5,2.36,2.36,0,0,0,2.18,1.08,2.43,2.43,0,0,0,2.21-1.08,6.81,6.81,0,0,0,.68-3.5,6.78,6.78,0,0,0-.67-3.49A2.42,2.42,0,0,0,212.15,53,2.37,2.37,0,0,0,210,54.06Z"/><path class="cls-1" d="M222.34,49.26l.28,2.8h2.43V53.3h-2.43v8.29a5,5,0,0,0,1.89.65l-.07.8H219l.1-.84a3.34,3.34,0,0,0,1.54-.61V53.3h-1.73l-.12-.82a5.32,5.32,0,0,0,1.85-.42V50.8a5.27,5.27,0,0,1,.85-3.13,3,3,0,0,1,2.63-1.19,5,5,0,0,1,2.68.59v2.24h-1.28c-.19-1.31-.72-2-1.59-2a1.44,1.44,0,0,0-1.16.5A2.12,2.12,0,0,0,222.34,49.26Z"/><path class="cls-1" d="M233,54.89a1.53,1.53,0,0,0-.36-1.18,2.13,2.13,0,0,0-1.27-.36l.07-.68c.59-.11,1.61-.38,3.08-.82l.46.26v9.5a4.26,4.26,0,0,0,1.64.63l-.09.8h-5.16l.09-.84a3.68,3.68,0,0,0,1.54-.59Zm.88-7.17c.81,0,1.22.45,1.22,1.35s-.41,1.36-1.22,1.36-1.23-.45-1.23-1.36S233.05,47.72,233.87,47.72Z"/><path class="cls-1" d="M246,55.36c0-1.55-.67-2.32-2-2.32a2.51,2.51,0,0,0-1.52.55,3.56,3.56,0,0,0-1.1,1.41v6.59a3.79,3.79,0,0,0,1.64.65l-.1.8h-5.16l.1-.84a3.17,3.17,0,0,0,1.54-.61V54.93a1.51,1.51,0,0,0-.36-1.17,2.16,2.16,0,0,0-1.28-.37l.07-.67c.21,0,1.15-.3,2.85-.8l.42.21.21,1.45a3.89,3.89,0,0,1,1.37-1.21,3.53,3.53,0,0,1,1.71-.45,3.85,3.85,0,0,1,2.66.86,3,3,0,0,1,.94,2.36v6.45a3.79,3.79,0,0,0,1.64.65l-.1.8h-5.14l.07-.8a3.27,3.27,0,0,0,1.55-.65Z"/><path class="cls-1" d="M255.64,63.2q-4.27,0-4.27-5.39a6.34,6.34,0,0,1,1.35-4.38,5,5,0,0,1,3.92-1.51,5.2,5.2,0,0,1,2,.4V49.8a1.57,1.57,0,0,0-.35-1.18,2.1,2.1,0,0,0-1.26-.36l0-.68c.53-.09,1.57-.37,3.11-.82l.47.24V61.61a3.75,3.75,0,0,0,1.61.63l-.07.8h-3.37l-.18-1.38A3.3,3.3,0,0,1,255.64,63.2Zm.21-1c1.85,0,2.78-1.47,2.78-4.39V53.37a4.38,4.38,0,0,0-2.06-.47,2.61,2.61,0,0,0-2.32,1.29,6.58,6.58,0,0,0-.83,3.58,7.08,7.08,0,0,0,.6,3.36A2,2,0,0,0,255.85,62.2Z"/><path class="cls-1" d="M265.47,54.89a1.53,1.53,0,0,0-.36-1.18,2.14,2.14,0,0,0-1.28-.36l.08-.68c.59-.11,1.61-.38,3.08-.82l.46.26v9.5a4.26,4.26,0,0,0,1.64.63L269,63h-5.17l.1-.84a3.68,3.68,0,0,0,1.54-.59Zm.87-7.17q1.23,0,1.23,1.35c0,.91-.41,1.36-1.23,1.36s-1.22-.45-1.22-1.36S265.53,47.72,266.34,47.72Z"/><path class="cls-1" d="M273.59,63.2a3.27,3.27,0,0,1-2.24-.7,2.64,2.64,0,0,1-.79-2.09,2.72,2.72,0,0,1,1.12-2.26,5.77,5.77,0,0,1,3.25-1l1.91-.14V55.1a2.48,2.48,0,0,0-.49-1.71,2.1,2.1,0,0,0-1.59-.53c-1.29,0-1.94.35-1.94,1a.91.91,0,0,0,.71.86c0,.75-.45,1.12-1.34,1.12a1.27,1.27,0,0,1-1.35-1.35,2.19,2.19,0,0,1,1.06-1.91,5.23,5.23,0,0,1,2.92-.71,4.62,4.62,0,0,1,2.93.84,2.8,2.8,0,0,1,1.08,2.34v6.51a4.06,4.06,0,0,0,1.63.63l-.09.8h-3.23l-.23-1A4.68,4.68,0,0,1,273.59,63.2Zm-1-2.87c0,1.28.53,1.91,1.57,1.91a4.06,4.06,0,0,0,2.66-1.35V58l-1.87.16a2.73,2.73,0,0,0-1.72.69A2,2,0,0,0,272.61,60.33Z"/></g></g></g></g></svg>