<svg xmlns="http://www.w3.org/2000/svg" viewBox="0 0 275.45 67.71"><defs><style>.cls-1{fill:#c6c6c6;}</style></defs><g id="Layer_2" data-name="Layer 2"><g id="Layer_1-2" data-name="Layer 1"><path class="cls-1" d="M63.91,32.1c-1.4.87-1.36,2.28-1.21,3.69.12,1.15.37,2.29.54,3.43,1.32,8.87-2.32,15.87-8.75,21.44-6.81,5.89-15.06,7.79-23.91,6.8-12.74-1.41-22-8-27.41-19.55C-6.37,27.82,6.64,3.76,28.68.41A37.76,37.76,0,0,1,40.11.46a7.36,7.36,0,0,1,5.41,3.06A8,8,0,0,1,46.59,7a2.91,2.91,0,0,1-2.09,3,3.23,3.23,0,0,1-3.7-.87,8.19,8.19,0,0,0-2-1.61c-1.43-.7-2.39,0-2.29,1.55.07,1.2.11,2.43-1.06,3.11A3.64,3.64,0,0,1,31.68,12c-.84-.47-1.58-1.14-2.44-1.56a28.23,28.23,0,0,0-4.78-2,6.85,6.85,0,0,0-3.26.18,2.12,2.12,0,0,0-1.32,1.31c-.1.41.48,1,.82,1.51a7.19,7.19,0,0,0,.77.66c2.12,2.1,1.53,4.71-1.29,5.64a9,9,0,0,1-2.14.36A14.19,14.19,0,0,0,4.9,29.86a11.84,11.84,0,0,0,0,3.31,2.23,2.23,0,0,0,2,2.2c.92.11,1.83-.74,2.19-2,.17-.6.25-1.23.36-1.85.26-1.51.94-2,2.37-1.85,1.19.16,1.81,1.08,1.6,2.47a7.52,7.52,0,0,1-2.56,4.44A5,5,0,0,0,9,41a13.19,13.19,0,0,0,3.12,7.67A8.62,8.62,0,0,0,14,50.24a2.83,2.83,0,0,0,4.1-.72c1.42-1.67,3.19-1.66,4.48.1A26.92,26.92,0,0,1,24,52.15a11.21,11.21,0,0,0,8.71,6,6.42,6.42,0,0,0,2.94-.5A2.36,2.36,0,0,0,37,55.06a2.65,2.65,0,0,0-2.46-1.89,14.48,14.48,0,0,0-1.74.08,2,2,0,0,1-2.18-1.08,2.35,2.35,0,0,1,.38-2.7,5.87,5.87,0,0,1,6.3-1.32c1.66.55,3.31,1.11,5,1.62,7.57,2.31,15.18-2.24,16.62-11.25.39-2.44.69-4.9-.2-7.31a9.27,9.27,0,0,0-.79-1.4l-.55.08L57,33.47c-1.75-.23-1.66-1.37-1.54-2.32a14.72,14.72,0,0,0-1-7c-1.78-4.87-5.06-7.92-10.36-8.56a14.11,14.11,0,0,1-2-.56,2.56,2.56,0,0,1,2.62-1.28A18.65,18.65,0,0,1,55,16.52a38.51,38.51,0,0,1,11,10.6,11.2,11.2,0,0,1,2.11,7.26,6.1,6.1,0,0,1-.7,2.47c-.24.44-1.2,1-1.41.84a2.93,2.93,0,0,1-1.14-1.63c-.12-.49.23-1.11.37-1.67C65.59,33.05,65.38,32.66,63.91,32.1Z"/><path class="cls-1" d="M21.14,29.46c3.17-2.85,5.7-2.79,8.73.17.34-.29.69-.59,1.05-.88a5.88,5.88,0,0,1,6-1c2,.75,2.81,2.49,2.9,4.47.12,2.8.08,5.61,0,8.41a1.6,1.6,0,0,1-1.73,1.73,1.68,1.68,0,0,1-1.63-1.87c0-2.27,0-4.54,0-6.81,0-1.77-.85-2.88-2.21-3.18A2.86,2.86,0,0,0,30.63,33a42.72,42.72,0,0,0-.25,5.2c0,.87,0,1.74,0,2.61a1.48,1.48,0,0,1-1.52,1.6,1.5,1.5,0,0,1-1.69-1.58c-.06-1.94,0-3.87,0-5.8a12.94,12.94,0,0,0-.18-2.16,2.6,2.6,0,0,0-2.55-2.34,2.77,2.77,0,0,0-3,2,7.2,7.2,0,0,0-.28,2.13c0,1.93,0,3.87,0,5.8,0,1.3-.74,2.07-1.77,2s-1.6-.76-1.61-2c0-3.48,0-7,0-10.44,0-1.09.15-2.12,1.43-2.34S20.88,28.22,21.14,29.46Z"/><path class="cls-1" d="M41.43,31.81c-1.11-1.15-1.11-2.12,0-3.07a5.53,5.53,0,0,1,5.31-1.16c3.32.83,5.36,4,5.13,7.8s-2.52,6.51-6,7A5.47,5.47,0,0,1,41.4,41c-1.11-1-1.08-2,.11-3.12,1.86,1.37,3.86,2.61,5.9.24A5.73,5.73,0,0,0,47.72,32C45.76,29.11,43.51,30.41,41.43,31.81Z"/><path class="cls-1" d="M57.71,11.27A2.67,2.67,0,0,1,55,14a3.88,3.88,0,0,1-3.6-3.68,2.74,2.74,0,0,1,2.85-3A3.69,3.69,0,0,1,57.71,11.27Z"/><path class="cls-1" d="M39.73,20.16a10.06,10.06,0,0,1,2.39,5.32,2.3,2.3,0,0,1-2.38,2.38,2.33,2.33,0,0,1-2.34-2.28C37.47,23.61,38.45,22,39.73,20.16Zm1.11,3.74h0v2.82C41.83,26,41.85,25.56,40.84,23.9Z"/><path class="cls-1" d="M12.67,28.19c-.72-.57-1.19-.78-1.42-1.15a4,4,0,0,1-.67-1.72A2.6,2.6,0,0,1,11,23.53a1.83,1.83,0,0,1,1.67-.25,2,2,0,0,1,1,1.49A18.62,18.62,0,0,1,12.67,28.19Z"/><path class="cls-1" d="M63.47,20.78,59.81,17.4c.64-.14,1-.38,1.37-.29,1.26.38,2.74.54,3.24,2.05.13.4-.18.95-.28,1.44Z"/><path class="cls-1" d="M67,41.52l-.42,1.87C65.3,42.27,65.37,41.86,67,41.52Z"/><path class="cls-1" d="M40.84,23.9c1,1.66,1,2.12,0,2.82V23.9Z"/><path class="cls-1" d="M40.85,23.9h0Z"/><path class="cls-1" d="M87.92,35.53v5.88a3,3,0,0,1-.63,2.09,2.17,2.17,0,0,1-1.67.7A2.11,2.11,0,0,1,84,43.5a3,3,0,0,1-.62-2.09v-7a21.43,21.43,0,0,0-.12-2.59,2.79,2.79,0,0,0-.61-1.51,2,2,0,0,0-1.59-.59,2.81,2.81,0,0,0-2.86,1.49,10.47,10.47,0,0,0-.69,4.27v6a3.08,3.08,0,0,1-.62,2.08,2.26,2.26,0,0,1-3.29,0A3,3,0,0,1,73,41.41V28.76a2.75,2.75,0,0,1,.58-1.9A1.92,1.92,0,0,1,75,26.21a2.07,2.07,0,0,1,1.51.61,2.27,2.27,0,0,1,.61,1.68v.42a7.7,7.7,0,0,1,2.46-2,6.42,6.42,0,0,1,2.92-.65,5.88,5.88,0,0,1,2.87.66,5.08,5.08,0,0,1,2,2,7.79,7.79,0,0,1,2.4-2,6.21,6.21,0,0,1,2.84-.65,6.48,6.48,0,0,1,3.12.71,4.55,4.55,0,0,1,2,2,9.33,9.33,0,0,1,.57,3.78v8.63a3,3,0,0,1-.63,2.09,2.17,2.17,0,0,1-1.67.7,2.11,2.11,0,0,1-1.64-.71,3,3,0,0,1-.64-2.08V34a15.38,15.38,0,0,0-.13-2.28,2.66,2.66,0,0,0-.65-1.44,2.1,2.1,0,0,0-1.62-.58,3,3,0,0,0-1.66.51,3.56,3.56,0,0,0-1.23,1.4A11.16,11.16,0,0,0,87.92,35.53Z"/><path class="cls-1" d="M108.12,24.16a2.31,2.31,0,0,1-1.58-.57,2.2,2.2,0,0,1,0-3.15,2.25,2.25,0,0,1,1.57-.61,2.35,2.35,0,0,1,1.52.55A2,2,0,0,1,110.3,22a2,2,0,0,1-.64,1.59A2.24,2.24,0,0,1,108.12,24.16Zm2.18,4.57V41.51a2.88,2.88,0,0,1-.63,2,2.09,2.09,0,0,1-1.6.68,2,2,0,0,1-1.58-.7,2.91,2.91,0,0,1-.61-2V28.86a2.81,2.81,0,0,1,.61-2,2,2,0,0,1,1.58-.67,2.12,2.12,0,0,1,1.6.67A2.58,2.58,0,0,1,110.3,28.73Z"/><path class="cls-1" d="M118.19,41.51V22.33a3,3,0,0,1,.59-2,2,2,0,0,1,1.6-.68,2.08,2.08,0,0,1,1.62.67,2.91,2.91,0,0,1,.61,2V41.51a2.83,2.83,0,0,1-.62,2,2.1,2.1,0,0,1-1.61.68,2,2,0,0,1-1.58-.7A2.91,2.91,0,0,1,118.19,41.51Z"/><path class="cls-1" d="M141.51,42.17l-3.9-6.41L135.21,38v3.52a2.7,2.7,0,0,1-.67,2,2.1,2.1,0,0,1-1.55.69,2,2,0,0,1-1.6-.68,3,3,0,0,1-.58-2V22.65a3.8,3.8,0,0,1,.56-2.24,1.88,1.88,0,0,1,1.62-.77,2,2,0,0,1,1.62.69,3.09,3.09,0,0,1,.6,2.06V33.12l5-5.22a11.41,11.41,0,0,1,1.41-1.33,1.9,1.9,0,0,1,1.18-.36,1.93,1.93,0,0,1,1.38.53,1.77,1.77,0,0,1,.55,1.32c0,.65-.6,1.51-1.8,2.59l-2.35,2.16,4.54,7.13q.5.8.72,1.2a1.79,1.79,0,0,1,.22.79,2.35,2.35,0,0,1-.58,1.66,2,2,0,0,1-1.51.61,1.7,1.7,0,0,1-1.25-.44A10.62,10.62,0,0,1,141.51,42.17Z"/><path class="cls-1" d="M156.92,22.16v6.76a10.15,10.15,0,0,1,2.54-2,6.77,6.77,0,0,1,3.21-.69,7.12,7.12,0,0,1,3.86,1,6.89,6.89,0,0,1,2.58,3A11.15,11.15,0,0,1,170,35a12.54,12.54,0,0,1-.51,3.68A8.69,8.69,0,0,1,168,41.62a6.58,6.58,0,0,1-2.36,1.9,6.86,6.86,0,0,1-3,.68A7,7,0,0,1,160.7,44a5.38,5.38,0,0,1-1.53-.64,6.9,6.9,0,0,1-1.08-.81c-.29-.29-.69-.71-1.17-1.27v.44a2.68,2.68,0,0,1-.6,1.89,2,2,0,0,1-1.52.64,1.91,1.91,0,0,1-1.5-.64,2.77,2.77,0,0,1-.56-1.89V22.36a3.23,3.23,0,0,1,.54-2,1.82,1.82,0,0,1,1.52-.69,2,2,0,0,1,1.57.65A2.87,2.87,0,0,1,156.92,22.16Zm.21,13.14a6.06,6.06,0,0,0,1.21,4.06,3.93,3.93,0,0,0,3.16,1.42,3.63,3.63,0,0,0,2.88-1.45,6.37,6.37,0,0,0,1.21-4.16,8,8,0,0,0-.51-3,4.39,4.39,0,0,0-1.42-1.95,3.53,3.53,0,0,0-2.16-.69,3.84,3.84,0,0,0-2.25.69,4.49,4.49,0,0,0-1.55,2A7.69,7.69,0,0,0,157.13,35.3Z"/><path class="cls-1" d="M188.07,41.7a13.74,13.74,0,0,1-3.1,1.87,8.61,8.61,0,0,1-3.37.63,6.3,6.3,0,0,1-3-.68,4.82,4.82,0,0,1-2-1.82,4.75,4.75,0,0,1-.7-2.49,4.52,4.52,0,0,1,1.15-3.1,5.76,5.76,0,0,1,3.16-1.71c.28-.07,1-.21,2.09-.44s2.07-.44,2.86-.63,1.66-.41,2.59-.68a4.61,4.61,0,0,0-.71-2.57,3.13,3.13,0,0,0-2.58-.82,5.44,5.44,0,0,0-2.54.47,4.08,4.08,0,0,0-1.46,1.41c-.4.63-.69,1-.85,1.24a1.42,1.42,0,0,1-1.08.3,1.88,1.88,0,0,1-1.29-.48,1.57,1.57,0,0,1-.54-1.22,3.73,3.73,0,0,1,.82-2.27,5.89,5.89,0,0,1,2.58-1.81,11.52,11.52,0,0,1,4.36-.72,12.29,12.29,0,0,1,4.58.69,4.3,4.3,0,0,1,2.36,2.18,9.49,9.49,0,0,1,.69,3.95c0,1,0,1.92,0,2.64s0,1.53,0,2.42a8.73,8.73,0,0,0,.41,2.6,8.45,8.45,0,0,1,.41,1.74,1.62,1.62,0,0,1-.64,1.24,2.16,2.16,0,0,1-1.45.56,2,2,0,0,1-1.34-.64A9.12,9.12,0,0,1,188.07,41.7Zm-.29-6.4a22.59,22.59,0,0,1-2.83.76c-1.24.26-2.09.46-2.57.58a3.49,3.49,0,0,0-1.36.73,1.87,1.87,0,0,0-.65,1.51,2.27,2.27,0,0,0,.76,1.71,2.84,2.84,0,0,0,2,.71,5.12,5.12,0,0,0,2.42-.58,3.87,3.87,0,0,0,1.63-1.48,6.77,6.77,0,0,0,.6-3.31Z"/><path class="cls-1" d="M214.16,38.41a5.12,5.12,0,0,1-3.52,5.11,11.74,11.74,0,0,1-4.24.68,10.44,10.44,0,0,1-4.08-.73,6.08,6.08,0,0,1-2.51-1.82,3.7,3.7,0,0,1-.81-2.2,1.69,1.69,0,0,1,.52-1.25,1.79,1.79,0,0,1,1.31-.52,1.58,1.58,0,0,1,1.07.34,3.63,3.63,0,0,1,.71,1,4.24,4.24,0,0,0,4.21,2.35,3.74,3.74,0,0,0,2.18-.59,1.67,1.67,0,0,0,.85-1.35,1.85,1.85,0,0,0-.88-1.71,11.43,11.43,0,0,0-2.91-1,23.11,23.11,0,0,1-3.72-1.19,6.15,6.15,0,0,1-2.29-1.64,3.78,3.78,0,0,1-.86-2.51,4.42,4.42,0,0,1,.8-2.51,5.45,5.45,0,0,1,2.34-1.89,8.93,8.93,0,0,1,3.73-.71,12.14,12.14,0,0,1,3.09.36,7.75,7.75,0,0,1,2.28,1,4.73,4.73,0,0,1,1.4,1.33,2.63,2.63,0,0,1,.47,1.42,1.66,1.66,0,0,1-.51,1.25,2,2,0,0,1-1.45.48,1.79,1.79,0,0,1-1.15-.38,7.56,7.56,0,0,1-1.1-1.17,4,4,0,0,0-1.18-1,3.71,3.71,0,0,0-1.85-.39,3.61,3.61,0,0,0-2,.51,1.49,1.49,0,0,0-.79,1.28,1.38,1.38,0,0,0,.58,1.14,5.11,5.11,0,0,0,1.57.74c.66.19,1.57.43,2.72.71a14.09,14.09,0,0,1,3.36,1.2,5.58,5.58,0,0,1,2,1.64A3.62,3.62,0,0,1,214.16,38.41Z"/><path class="cls-1" d="M232.24,42.17l-3.9-6.41L225.94,38v3.52a2.71,2.71,0,0,1-.68,2,2.08,2.08,0,0,1-1.54.69,2,2,0,0,1-1.61-.68,3,3,0,0,1-.58-2V22.65a3.72,3.72,0,0,1,.57-2.24,1.88,1.88,0,0,1,1.62-.77,2,2,0,0,1,1.62.69,3.09,3.09,0,0,1,.6,2.06V33.12l5-5.22a13.07,13.07,0,0,1,1.41-1.33,2.08,2.08,0,0,1,2.56.17,1.74,1.74,0,0,1,.55,1.32c0,.65-.6,1.51-1.8,2.59l-2.35,2.16,4.54,7.13q.5.8.72,1.2a1.66,1.66,0,0,1,.22.79,2.3,2.3,0,0,1-.58,1.66,2,2,0,0,1-1.51.61,1.7,1.7,0,0,1-1.25-.44A10.74,10.74,0,0,1,232.24,42.17Z"/><path class="cls-1" d="M254.64,36.29H246A5.8,5.8,0,0,0,246.6,39a4.06,4.06,0,0,0,3.73,2.31,5.48,5.48,0,0,0,1.45-.18,4.71,4.71,0,0,0,1.27-.59,8.89,8.89,0,0,0,1.14-.85c.34-.3.79-.71,1.34-1.23a1.48,1.48,0,0,1,1-.29,1.62,1.62,0,0,1,1.1.37,1.35,1.35,0,0,1,.43,1.06,2.92,2.92,0,0,1-.47,1.4,5.76,5.76,0,0,1-1.42,1.54,8,8,0,0,1-2.38,1.22,10.14,10.14,0,0,1-3.3.49,8.84,8.84,0,0,1-6.63-2.43,9.08,9.08,0,0,1-2.36-6.6,10.92,10.92,0,0,1,.58-3.63,8.12,8.12,0,0,1,1.7-2.88,7.48,7.48,0,0,1,2.76-1.84,10,10,0,0,1,3.63-.64,8.57,8.57,0,0,1,4.44,1.1,7.1,7.1,0,0,1,2.78,2.82,7.41,7.41,0,0,1,.92,3.53c0,1.12-.31,1.84-.95,2.17A6,6,0,0,1,254.64,36.29ZM246,33.78h8a5.36,5.36,0,0,0-1.23-3.39A3.64,3.64,0,0,0,250,29.26a3.53,3.53,0,0,0-2.71,1.14A5.66,5.66,0,0,0,246,33.78Z"/><path class="cls-1" d="M265.57,26.6h.49V24q0-1.08.06-1.68a2.4,2.4,0,0,1,.31-1,1.91,1.91,0,0,1,.75-.74,2.08,2.08,0,0,1,1.08-.29,2.15,2.15,0,0,1,1.52.64,1.81,1.81,0,0,1,.58,1,9.4,9.4,0,0,1,.12,1.72v3h1.62a2,2,0,0,1,1.43.45,1.48,1.48,0,0,1,.5,1.14,1.28,1.28,0,0,1-.71,1.25,4.53,4.53,0,0,1-2,.35h-.83v8.14a15.29,15.29,0,0,0,.07,1.59,1.62,1.62,0,0,0,.39.91,1.35,1.35,0,0,0,1,.35,5.63,5.63,0,0,0,1-.14,5.75,5.75,0,0,1,1-.14,1.33,1.33,0,0,1,1,.43,1.43,1.43,0,0,1,.43,1.06,1.77,1.77,0,0,1-1.16,1.64,7.88,7.88,0,0,1-3.36.57,5.82,5.82,0,0,1-3.14-.7,3.23,3.23,0,0,1-1.4-1.93,13.12,13.12,0,0,1-.33-3.29V29.79h-.59a2.1,2.1,0,0,1-1.45-.45,1.46,1.46,0,0,1-.51-1.15,1.44,1.44,0,0,1,.53-1.14A2.29,2.29,0,0,1,265.57,26.6Z"/></g></g></svg>